<svg xmlns="http://www.w3.org/2000/svg" xmlns:xlink="http://www.w3.org/1999/xlink" width="53" height="53" viewBox="0 0 53 53">
  <defs>
    <clipPath id="clip-path">
      <rect id="사각형_816" data-name="사각형 816" width="20.787" height="25.103" transform="translate(0 0)" fill="none"/>
    </clipPath>
  </defs>
  <g id="보행자우선도로" transform="translate(0 -194)">
    <rect id="사각형_715" data-name="사각형 715" width="53" height="53" transform="translate(0 194)" fill="none"/>
    <g id="그룹_2204" data-name="그룹 2204" transform="translate(16 208)">
      <g id="그룹_2203" data-name="그룹 2203" clip-path="url(#clip-path)">
        <path id="패스_3647" data-name="패스 3647" d="M14.089,10.888A1.358,1.358,0,1,0,12.731,9.53a1.358,1.358,0,0,0,1.358,1.358" fill="#fff"/>
        <path id="패스_3648" data-name="패스 3648" d="M20.448,22.019l-2.2-2.229-1.149-3.371-.284-1.964.878.519.116,2.06a1.045,1.045,0,0,0,1.041.985l.061,0a1.043,1.043,0,0,0,.982-1.1L19.74,14.3a1.042,1.042,0,0,0-.51-.839l-3.182-1.883a1.194,1.194,0,0,0-.9-.232l-1.02.147a1.167,1.167,0,0,0-.363.12c-.015.006-.029.014-.044.021s-.039.02-.058.032a1.03,1.03,0,0,0-.376.35l-1.74,2.756L9.49,15.43a1.043,1.043,0,1,0,.634,1.988l2.424-.773a1.038,1.038,0,0,0,.565-.437l.4-.636.126.876-2.534,7.086a1.174,1.174,0,0,0,.711,1.5,1.158,1.158,0,0,0,.4.069,1.175,1.175,0,0,0,1.1-.779l2.043-5.714.748,2.192a1.166,1.166,0,0,0,.276.447l2.393,2.421a1.174,1.174,0,0,0,1.67-1.651" fill="#fff"/>
        <path id="패스_3649" data-name="패스 3649" d="M5.826,10.888A1.358,1.358,0,1,0,4.468,9.53a1.358,1.358,0,0,0,1.358,1.358" fill="#fff"/>
        <path id="패스_3650" data-name="패스 3650" d="M12.185,22.019l-2.2-2.229L8.832,16.419l-.284-1.964.878.519.116,2.06a1.045,1.045,0,0,0,1.041.985l.061,0a1.043,1.043,0,0,0,.982-1.1L11.477,14.3a1.042,1.042,0,0,0-.51-.839L7.785,11.578a1.194,1.194,0,0,0-.895-.232l-1.02.147a1.167,1.167,0,0,0-.363.12c-.015.006-.029.014-.044.021s-.039.02-.058.032a1.03,1.03,0,0,0-.376.35l-1.74,2.756-2.062.658a1.043,1.043,0,1,0,.634,1.988l2.424-.773a1.038,1.038,0,0,0,.565-.437l.4-.636.126.876L2.844,23.534a1.174,1.174,0,0,0,.711,1.5,1.158,1.158,0,0,0,.395.069,1.175,1.175,0,0,0,1.1-.779L7.1,18.61,7.846,20.8a1.166,1.166,0,0,0,.276.447l2.393,2.421a1.174,1.174,0,0,0,1.67-1.651" fill="#fff"/>
        <path id="패스_3651" data-name="패스 3651" d="M19.91,8.172,10.2,3.057.5,8.172" fill="none" stroke="#fff" stroke-linecap="round" stroke-linejoin="round" stroke-width="1"/>
        <path id="패스_3652" data-name="패스 3652" d="M19.91,5.615,10.2.5.5,5.615" fill="none" stroke="#fff" stroke-linecap="round" stroke-linejoin="round" stroke-width="1"/>
      </g>
    </g>
    <g id="그룹_2210" data-name="그룹 2210" transform="translate(16 208)">
      <g id="그룹_2203-2" data-name="그룹 2203" clip-path="url(#clip-path)">
        <path id="패스_3647-2" data-name="패스 3647" d="M14.089,10.888A1.358,1.358,0,1,0,12.731,9.53a1.358,1.358,0,0,0,1.358,1.358" fill="#fff"/>
        <path id="패스_3648-2" data-name="패스 3648" d="M20.448,22.019l-2.2-2.229-1.149-3.371-.284-1.964.878.519.116,2.06a1.045,1.045,0,0,0,1.041.985l.061,0a1.043,1.043,0,0,0,.982-1.1L19.74,14.3a1.042,1.042,0,0,0-.51-.839l-3.182-1.883a1.194,1.194,0,0,0-.9-.232l-1.02.147a1.167,1.167,0,0,0-.363.12c-.015.006-.029.014-.044.021s-.039.02-.058.032a1.03,1.03,0,0,0-.376.35l-1.74,2.756L9.49,15.43a1.043,1.043,0,1,0,.634,1.988l2.424-.773a1.038,1.038,0,0,0,.565-.437l.4-.636.126.876-2.534,7.086a1.174,1.174,0,0,0,.711,1.5,1.158,1.158,0,0,0,.4.069,1.175,1.175,0,0,0,1.1-.779l2.043-5.714.748,2.192a1.166,1.166,0,0,0,.276.447l2.393,2.421a1.174,1.174,0,0,0,1.67-1.651" fill="#fff"/>
        <path id="패스_3649-2" data-name="패스 3649" d="M5.826,10.888A1.358,1.358,0,1,0,4.468,9.53a1.358,1.358,0,0,0,1.358,1.358" fill="#fff"/>
        <path id="패스_3650-2" data-name="패스 3650" d="M12.185,22.019l-2.2-2.229L8.832,16.419l-.284-1.964.878.519.116,2.06a1.045,1.045,0,0,0,1.041.985l.061,0a1.043,1.043,0,0,0,.982-1.1L11.477,14.3a1.042,1.042,0,0,0-.51-.839L7.785,11.578a1.194,1.194,0,0,0-.895-.232l-1.02.147a1.167,1.167,0,0,0-.363.12c-.015.006-.029.014-.044.021s-.039.02-.058.032a1.03,1.03,0,0,0-.376.35l-1.74,2.756-2.062.658a1.043,1.043,0,1,0,.634,1.988l2.424-.773a1.038,1.038,0,0,0,.565-.437l.4-.636.126.876L2.844,23.534a1.174,1.174,0,0,0,.711,1.5,1.158,1.158,0,0,0,.395.069,1.175,1.175,0,0,0,1.1-.779L7.1,18.61,7.846,20.8a1.166,1.166,0,0,0,.276.447l2.393,2.421a1.174,1.174,0,0,0,1.67-1.651" fill="#fff"/>
        <path id="패스_3651-2" data-name="패스 3651" d="M19.91,8.172,10.2,3.057.5,8.172" fill="none" stroke="#fff" stroke-linecap="round" stroke-linejoin="round" stroke-width="1"/>
        <path id="패스_3652-2" data-name="패스 3652" d="M19.91,5.615,10.2.5.5,5.615" fill="none" stroke="#fff" stroke-linecap="round" stroke-linejoin="round" stroke-width="1"/>
      </g>
    </g>
  </g>
</svg>
