<svg xmlns="http://www.w3.org/2000/svg" xmlns:xlink="http://www.w3.org/1999/xlink" width="53" height="53" viewBox="0 0 53 53">
  <defs>
    <clipPath id="clip-path">
      <rect id="사각형_713" data-name="사각형 713" width="25.137" height="23.16" fill="#fff"/>
    </clipPath>
  </defs>
  <g id="교통사고위험도" transform="translate(0 -145)">
    <rect id="사각형_714" data-name="사각형 714" width="53" height="53" transform="translate(0 145)" fill="none"/>
    <g id="교통사고위험도-2" data-name="교통사고위험도" transform="translate(6 153)">
      <g id="그룹_2158" data-name="그룹 2158" transform="translate(8 7)" clip-path="url(#clip-path)">
        <path id="패스_3611" data-name="패스 3611" d="M13.712,5.068a2.194,2.194,0,1,0-2.194-2.193,2.193,2.193,0,0,0,2.194,2.193" transform="translate(0.616 0.036)" fill="#fff"/>
        <path id="패스_3612" data-name="패스 3612" d="M19.368,11.4,18.72,7.818a1.3,1.3,0,0,0-1-1.039l-3.71-.8L12.051,4.328a1.536,1.536,0,0,0-.292-.19L7.039.292A1.3,1.3,0,1,0,5.4,2.3l3.8,3.1L6.664,8.394l-2.931.047a1.46,1.46,0,0,0-1.217.687L.222,12.8A1.461,1.461,0,1,0,2.7,14.352l1.874-3,2.457-.039-1.777,1.1a1.464,1.464,0,0,0-.679,1.043l-.642,4.636a1.461,1.461,0,0,0,1.247,1.648,1.631,1.631,0,0,0,.2.014,1.462,1.462,0,0,0,1.445-1.261l.547-3.955L10.46,12.62l-.1.059a1.477,1.477,0,0,0,.43-.346l1.162-1.376L13.928,8.62l2.39.515.493,2.728a1.3,1.3,0,0,0,1.277,1.068,1.248,1.248,0,0,0,.232-.021A1.3,1.3,0,0,0,19.368,11.4M9.511,12.853h0m-.468-.13c.026.013.054.024.081.035-.027-.011-.054-.022-.081-.035m.874.107c.017,0,.034-.005.051-.009-.017,0-.034.006-.051.009" transform="translate(0 -0.001)" fill="#fff"/>
        <path id="패스_3613" data-name="패스 3613" d="M22.759,16.84H11.439a.934.934,0,0,1-.933-.933l.839-4.755a.912.912,0,0,1,.927-.859h9.655a.934.934,0,0,1,.932.89l.827,4.649a.944.944,0,0,1-.927,1.008m-11.4-.87a.507.507,0,0,0,.077.019H22.759a.083.083,0,0,0,.083-.082l-.833-4.681a.083.083,0,0,0-.082-.083H12.272a.083.083,0,0,0-.082.083l-.84,4.755c0-.008.006-.012.013-.012" transform="translate(0.562 0.55)" fill="#fff"/>
        <path id="패스_3614" data-name="패스 3614" d="M24.182,14.948l-.732-.788a.213.213,0,0,0-.156-.067H10.958a.213.213,0,0,0-.156.067l-.732.788a.209.209,0,0,0-.057.144v5.123a.213.213,0,0,0,.213.213h13.8a.213.213,0,0,0,.213-.213V15.093a.209.209,0,0,0-.057-.144M12.526,19A1.193,1.193,0,1,1,13.719,17.8,1.193,1.193,0,0,1,12.526,19m9.2,0A1.193,1.193,0,1,1,22.919,17.8,1.193,1.193,0,0,1,21.726,19" transform="translate(0.535 0.753)" fill="#fff"/>
        <path id="패스_3615" data-name="패스 3615" d="M11.588,22.159H10.95a.937.937,0,0,1-.938-.937V19.686a.937.937,0,0,1,.938-.937h.638a.937.937,0,0,1,.937.937v1.537a.937.937,0,0,1-.937.937" transform="translate(0.535 1.002)" fill="#fff"/>
        <path id="패스_3616" data-name="패스 3616" d="M22.707,22.159h-.638a.937.937,0,0,1-.938-.937V19.686a.937.937,0,0,1,.938-.937h.638a.937.937,0,0,1,.937.937v1.537a.937.937,0,0,1-.937.937" transform="translate(1.13 1.002)" fill="#fff"/>
        <path id="패스_3617" data-name="패스 3617" d="M11.35,14.333s-1.165-.971-1.554-.846.153,1.415,1,1.221Z" transform="translate(0.517 0.72)" fill="#fff"/>
        <path id="패스_3618" data-name="패스 3618" d="M22.264,14.333s1.165-.971,1.554-.846-.153,1.415-1,1.221Z" transform="translate(1.19 0.72)" fill="#fff"/>
        <path id="패스_3619" data-name="패스 3619" d="M15.922,15.988l-.263-2.845a.334.334,0,0,0-.333-.3H13.064a.334.334,0,0,0-.333.3l-.263,2.845H13.98V14.413h.431v1.575Z" transform="translate(0.667 0.686)" fill="#fff"/>
        <path id="패스_3620" data-name="패스 3620" d="M21.236,15.988l-.263-2.845a.334.334,0,0,0-.333-.3H18.378a.334.334,0,0,0-.333.3l-.263,2.845h1.512V14.413h.431v1.575Z" transform="translate(0.951 0.686)" fill="#fff"/>
      </g>
    </g>
  </g>
</svg>
