<svg xmlns="http://www.w3.org/2000/svg" xmlns:xlink="http://www.w3.org/1999/xlink" width="53" height="53" viewBox="0 0 53 53">
  <defs>
    <clipPath id="clip-path">
      <rect id="사각형_712" data-name="사각형 712" width="25.024" height="21.558" transform="translate(0 0)" fill="#0062af"/>
    </clipPath>
  </defs>
  <g id="지역일반현황" transform="translate(0 -92)">
    <rect id="사각형_710" data-name="사각형 710" width="53" height="53" transform="translate(0 92)" fill="none"/>
    <rect id="사각형_780" data-name="사각형 780" width="37" height="37" rx="7" transform="translate(8 100)" fill="#fff"/>
    <g id="지역일반현황-2" data-name="지역일반현황" transform="translate(5.234 98)">
      <g id="그룹_2156" data-name="그룹 2156" transform="translate(8.766 10)" clip-path="url(#clip-path)">
        <path id="패스_3609" data-name="패스 3609" d="M17.134,0A5.165,5.165,0,0,0,11.97,5.164c0,2.853,5.164,9.448,5.164,9.448S22.3,8.017,22.3,5.164A5.165,5.165,0,0,0,17.134,0m0,7.256a2.092,2.092,0,1,1,2.092-2.092,2.092,2.092,0,0,1-2.092,2.092" transform="translate(-4.622 0)" fill="#0062af"/>
        <path id="패스_3610" data-name="패스 3610" d="M24.849,21.363l-8.167-3.849a50.5,50.5,0,0,1-3.2,4.618,1.227,1.227,0,0,1-1.933,0,50.37,50.37,0,0,1-3.2-4.618L.177,21.363a.307.307,0,0,0-.011.55l12.205,6.374a.306.306,0,0,0,.284,0L24.86,21.913a.307.307,0,0,0-.011-.55" transform="translate(0 -6.763)" fill="#0062af"/>
      </g>
    </g>
  </g>
</svg>
